<?xml version="1.0" standalone="no"?>
  <svg version="1.1"
      baseProfile="full"
     width="889px"
      height="704px"
     
      xmlns="http://www.w3.org/2000/svg"
      >
      <g xmlns="http://www.w3.org/2000/svg" xmlns:xlink="http://www.w3.org/1999/xlink">
      <g transform="rotate(0 444.49799743652346 352.05000091552733)"><svg id="1663994195251" opacity="1" fill="rgb(10, 20, 30)" viewBox="1.440000057220459 -50.400001525878906 64.72999572753906 50.400001525878906" width="92.67599487304688" preserveAspectRatio="none" height="72.48000183105468" x="398.16" y="315.81"><path id="textPath" d="M1.44 0L18.50 0C28.22 0 33.26-6.91 33.26-14.76C33.26-18.86 31.61-22.54 28.87-25.20C31.61-27.86 33.26-31.61 33.26-35.64C33.26-43.85 26.64-50.40 18.50-50.40L1.44-50.40L1.44-46.80L18.50-46.80C24.62-46.80 29.66-41.83 29.66-35.64C29.66-30.89 26.64-26.78 22.39-25.20C26.64-23.62 29.66-19.58 29.66-14.76C29.66-8.64 24.62-3.60 18.50-3.60L5.04-3.60L5.04-41.76L6.48-41.76L6.48-5.04L18.50-5.04C23.83-5.04 28.22-9.43 28.22-14.76C28.22-20.16 23.83-24.48 18.50-24.48L9.94-24.48L9.94-25.92L18.50-25.92C23.83-25.92 28.22-30.31 28.22-35.64C28.22-41.04 23.83-45.36 18.50-45.36L1.44-45.36ZM10.08-29.52L10.08-41.76L18.50-41.76C21.89-41.76 24.62-39.02 24.62-35.64C24.62-32.26 21.89-29.52 18.50-29.52ZM10.08-8.64L10.08-20.88L18.50-20.88C21.89-20.88 24.62-18.14 24.62-14.76C24.62-8.86 18.86-9.07 18.50-8.64ZM47.23 0L55.87 0L55.87-41.76L66.17-41.76L66.17-50.40L36.86-50.40L36.86-46.80L62.57-46.80L62.57-45.36L36.86-45.36L36.86-41.76L47.23-41.76ZM50.83-3.60L50.83-41.76L52.27-41.76L52.27-3.60Z" style="pointer-events: bounding-box; cursor: move;"></path></svg></g><g transform="rotate(0 444.5 352.046875)"><svg xmlns:dc="http://purl.org/dc/elements/1.1/" xmlns:cc="http://creativecommons.org/ns#" xmlns:rdf="http://www.w3.org/1999/02/22-rdf-syntax-ns#" xmlns:svg="http://www.w3.org/2000/svg" xmlns="http://www.w3.org/2000/svg" xmlns:sodipodi="http://sodipodi.sourceforge.net/DTD/sodipodi-0.dtd" xmlns:inkscape="http://www.inkscape.org/namespaces/inkscape" version="1.1" id="Layer_1" x="361" y="274" viewBox="157.35000610351562 157.34999084472656 685.2999877929688 685.2999877929688" width="167" class="withFill injected-svg" height="156.09375" style="enable-background:new 0 0 1000 1000;" xml:space="preserve" data-src="/static/media/147.svg" xmlns:xlink="http://www.w3.org/1999/xlink" fill="rgb(10, 20, 30)" opacity="1" preserveAspectRatio="none"><style type="text/css" id="style3">
	.st0{fill:#231F20;}
	.st1{fill:#B9921D;}
</style><switch id="switch5" transform="translate(-24.95,17.65)"><g id="g7"><g id="g9"><g id="g11"><path class="st0" d="m 829.7,787.1 -609.5,0 0,-609.5 609.5,0 0,609.5 z m -589.8,-19.8 570,0 0,-570 -570,0 0,570 z" id="path13-1037" inkscape:connector-curvature="0" style="fill: rgb(10, 20, 30);"></path></g><g id="g15"><g id="g17"><path class="st1" d="M 220.2,589 C 208.5,555.6 202,519.7 202,482.4 c 0,-37.4 6.5,-73.2 18.2,-106.6 l 0,-49.9 C 196,372.8 182.3,426 182.3,482.3 c 0,56.4 13.7,109.6 37.9,156.5 l 0,-49.8 z" id="path19-1038" inkscape:connector-curvature="0" style="fill:#b9921d"></path><path class="st1" d="m 829.6,639 c 24.3,-47 38,-100.3 38,-156.7 0,-56.4 -13.7,-109.7 -38,-156.7 l 0,49.9 c 11.8,33.4 18.2,69.4 18.2,106.8 0,37.4 -6.5,73.3 -18.2,106.8 l 0,49.9 z" id="path21-1039" inkscape:connector-curvature="0" style="fill:#b9921d"></path><path class="st1" d="M 810.5,632.8 C 756.3,735.3 648.6,805.3 524.9,805.3 401.6,805.3 294.3,735.8 239.9,634 l 0,38.4 c 61.5,92 166.3,152.6 285,152.6 119.1,0 224.2,-61.1 285.6,-153.6 l 0,-38.6 z" id="path23-1040" inkscape:connector-curvature="0" style="fill:#b9921d"></path><path class="st1" d="m 524.9,159.4 c 123.8,0 231.4,70 285.6,172.5 l 0,-38.7 C 749.1,200.8 644,139.7 524.9,139.7 c -118.7,0 -223.5,60.7 -285,152.6 l 0,38.4 c 54.4,-101.8 161.7,-171.3 285,-171.3 z" id="path25-1041" inkscape:connector-curvature="0" style="fill:#b9921d"></path></g></g></g></g></switch></svg></g>
      </g>
  </svg>